<mxfile host="Electron" agent="Mozilla/5.0 (Windows NT 10.0; Win64; x64) AppleWebKit/537.36 (KHTML, like Gecko) draw.io/24.7.5 Chrome/126.0.6478.183 Electron/31.3.0 Safari/537.36" version="24.7.5">
  <diagram name="Page-1" id="MJn4dB1FobMV8S9zWYwg">
    <mxGraphModel dx="1434" dy="844" grid="1" gridSize="10" guides="1" tooltips="1" connect="1" arrows="1" fold="1" page="1" pageScale="1" pageWidth="850" pageHeight="1100" math="0" shadow="0">
      <root>
        <mxCell id="0" />
        <mxCell id="1" parent="0" />
        <mxCell id="Km2wr5Chm2uo7bWbvkf6-115" value="" style="group" vertex="1" connectable="0" parent="1">
          <mxGeometry x="113" y="319" width="677" height="281" as="geometry" />
        </mxCell>
        <mxCell id="Km2wr5Chm2uo7bWbvkf6-113" value="" style="rounded=1;whiteSpace=wrap;html=1;fillColor=#f5f5f5;fontColor=#333333;strokeColor=#666666;" vertex="1" parent="Km2wr5Chm2uo7bWbvkf6-115">
          <mxGeometry width="677" height="281" as="geometry" />
        </mxCell>
        <mxCell id="Km2wr5Chm2uo7bWbvkf6-106" value="" style="rounded=1;whiteSpace=wrap;html=1;rotation=90;shadow=1;fillColor=#e1d5e7;strokeColor=#9673a6;" vertex="1" parent="Km2wr5Chm2uo7bWbvkf6-115">
          <mxGeometry x="414.35" y="114.5" width="157" height="60" as="geometry" />
        </mxCell>
        <mxCell id="Km2wr5Chm2uo7bWbvkf6-97" value="" style="rounded=1;whiteSpace=wrap;html=1;rotation=90;shadow=1;fillColor=#f5f5f5;strokeColor=#666666;fontColor=#333333;" vertex="1" parent="Km2wr5Chm2uo7bWbvkf6-115">
          <mxGeometry x="550.1" y="114.5" width="157" height="60" as="geometry" />
        </mxCell>
        <mxCell id="Km2wr5Chm2uo7bWbvkf6-84" value="" style="rounded=1;whiteSpace=wrap;html=1;rotation=90;shadow=1;fillColor=#ffe6cc;strokeColor=#d79b00;" vertex="1" parent="Km2wr5Chm2uo7bWbvkf6-115">
          <mxGeometry x="298.5" y="115" width="157" height="60" as="geometry" />
        </mxCell>
        <mxCell id="Km2wr5Chm2uo7bWbvkf6-65" value="" style="rounded=1;whiteSpace=wrap;html=1;rotation=90;shadow=1;fillColor=#f5f5f5;strokeColor=#666666;fontColor=#333333;" vertex="1" parent="Km2wr5Chm2uo7bWbvkf6-115">
          <mxGeometry x="-23.5" y="115" width="157" height="60" as="geometry" />
        </mxCell>
        <mxCell id="Km2wr5Chm2uo7bWbvkf6-36" value="" style="verticalLabelPosition=bottom;html=1;verticalAlign=top;align=center;strokeColor=none;fillColor=#00BEF2;shape=mxgraph.azure.website_generic;pointerEvents=1;" vertex="1" parent="Km2wr5Chm2uo7bWbvkf6-115">
          <mxGeometry x="35" y="81" width="40" height="40" as="geometry" />
        </mxCell>
        <mxCell id="Km2wr5Chm2uo7bWbvkf6-37" value="" style="verticalLabelPosition=bottom;html=1;verticalAlign=top;align=center;strokeColor=none;fillColor=#00BEF2;shape=mxgraph.azure.website_generic;pointerEvents=1;" vertex="1" parent="Km2wr5Chm2uo7bWbvkf6-115">
          <mxGeometry x="35" y="127.5" width="40" height="40" as="geometry" />
        </mxCell>
        <mxCell id="Km2wr5Chm2uo7bWbvkf6-38" value="" style="verticalLabelPosition=bottom;html=1;verticalAlign=top;align=center;strokeColor=none;fillColor=#00BEF2;shape=mxgraph.azure.website_generic;pointerEvents=1;" vertex="1" parent="Km2wr5Chm2uo7bWbvkf6-115">
          <mxGeometry x="35" y="175.5" width="40" height="40" as="geometry" />
        </mxCell>
        <mxCell id="Km2wr5Chm2uo7bWbvkf6-42" value="&lt;span style=&quot;box-sizing: border-box; border: 0px solid rgb(229, 231, 235); scrollbar-color: auto; scrollbar-width: auto; --tw-border-spacing-x: 0; --tw-border-spacing-y: 0; --tw-translate-x: 0; --tw-translate-y: 0; --tw-rotate: 0; --tw-skew-x: 0; --tw-skew-y: 0; --tw-scale-x: 1; --tw-scale-y: 1; --tw-pan-x: ; --tw-pan-y: ; --tw-pinch-zoom: ; --tw-scroll-snap-strictness: proximity; --tw-gradient-from-position: ; --tw-gradient-via-position: ; --tw-gradient-to-position: ; --tw-ordinal: ; --tw-slashed-zero: ; --tw-numeric-figure: ; --tw-numeric-spacing: ; --tw-numeric-fraction: ; --tw-ring-inset: ; --tw-ring-offset-width: 0px; --tw-ring-offset-color: #fff; --tw-ring-color: rgba(59,130,246,.5); --tw-ring-offset-shadow: 0 0 #0000; --tw-ring-shadow: 0 0 #0000; --tw-shadow: 0 0 #0000; --tw-shadow-colored: 0 0 #0000; --tw-blur: ; --tw-brightness: ; --tw-contrast: ; --tw-grayscale: ; --tw-hue-rotate: ; --tw-invert: ; --tw-saturate: ; --tw-sepia: ; --tw-drop-shadow: ; --tw-backdrop-blur: ; --tw-backdrop-brightness: ; --tw-backdrop-contrast: ; --tw-backdrop-grayscale: ; --tw-backdrop-hue-rotate: ; --tw-backdrop-invert: ; --tw-backdrop-opacity: ; --tw-backdrop-saturate: ; --tw-backdrop-sepia: ; --tw-contain-size: ; --tw-contain-layout: ; --tw-contain-paint: ; --tw-contain-style: ; color: oklch(0.304 0.04 213.681); font-family: __fkGroteskNeue_598ab8, __fkGroteskNeue_Fallback_598ab8, ui-sans-serif, system-ui, -apple-system, BlinkMacSystemFont, &amp;quot;Segoe UI&amp;quot;, Roboto, &amp;quot;Helvetica Neue&amp;quot;, Arial, &amp;quot;Noto Sans&amp;quot;, sans-serif, &amp;quot;Apple Color Emoji&amp;quot;, &amp;quot;Segoe UI Emoji&amp;quot;, &amp;quot;Segoe UI Symbol&amp;quot;, &amp;quot;Noto Color Emoji&amp;quot;; text-align: left; background-color: oklch(0.99 0.004 106.471);&quot;&gt;&lt;span style=&quot;box-sizing: border-box; border: 0px solid rgb(229, 231, 235); scrollbar-color: auto; scrollbar-width: auto; --tw-border-spacing-x: 0; --tw-border-spacing-y: 0; --tw-translate-x: 0; --tw-translate-y: 0; --tw-rotate: 0; --tw-skew-x: 0; --tw-skew-y: 0; --tw-scale-x: 1; --tw-scale-y: 1; --tw-pan-x: ; --tw-pan-y: ; --tw-pinch-zoom: ; --tw-scroll-snap-strictness: proximity; --tw-gradient-from-position: ; --tw-gradient-via-position: ; --tw-gradient-to-position: ; --tw-ordinal: ; --tw-slashed-zero: ; --tw-numeric-figure: ; --tw-numeric-spacing: ; --tw-numeric-fraction: ; --tw-ring-inset: ; --tw-ring-offset-width: 0px; --tw-ring-offset-color: #fff; --tw-ring-color: rgba(59,130,246,.5); --tw-ring-offset-shadow: 0 0 #0000; --tw-ring-shadow: 0 0 #0000; --tw-shadow: 0 0 #0000; --tw-shadow-colored: 0 0 #0000; --tw-blur: ; --tw-brightness: ; --tw-contrast: ; --tw-grayscale: ; --tw-hue-rotate: ; --tw-invert: ; --tw-saturate: ; --tw-sepia: ; --tw-drop-shadow: ; --tw-backdrop-blur: ; --tw-backdrop-brightness: ; --tw-backdrop-contrast: ; --tw-backdrop-grayscale: ; --tw-backdrop-hue-rotate: ; --tw-backdrop-invert: ; --tw-backdrop-opacity: ; --tw-backdrop-saturate: ; --tw-backdrop-sepia: ; --tw-contain-size: ; --tw-contain-layout: ; --tw-contain-paint: ; --tw-contain-style: ; color: var(--tw-prose-bold);&quot;&gt;&lt;font style=&quot;font-size: 12px;&quot;&gt;Data Sources&lt;/font&gt;&lt;/span&gt;&lt;/span&gt;" style="text;html=1;align=center;verticalAlign=middle;whiteSpace=wrap;rounded=0;fontStyle=1;rotation=0;" vertex="1" parent="Km2wr5Chm2uo7bWbvkf6-115">
          <mxGeometry x="10" y="36" width="100" height="30" as="geometry" />
        </mxCell>
        <mxCell id="Km2wr5Chm2uo7bWbvkf6-43" value="&lt;span style=&quot;box-sizing: border-box; border: 0px solid rgb(229, 231, 235); scrollbar-color: auto; scrollbar-width: auto; --tw-border-spacing-x: 0; --tw-border-spacing-y: 0; --tw-translate-x: 0; --tw-translate-y: 0; --tw-rotate: 0; --tw-skew-x: 0; --tw-skew-y: 0; --tw-scale-x: 1; --tw-scale-y: 1; --tw-pan-x: ; --tw-pan-y: ; --tw-pinch-zoom: ; --tw-scroll-snap-strictness: proximity; --tw-gradient-from-position: ; --tw-gradient-via-position: ; --tw-gradient-to-position: ; --tw-ordinal: ; --tw-slashed-zero: ; --tw-numeric-figure: ; --tw-numeric-spacing: ; --tw-numeric-fraction: ; --tw-ring-inset: ; --tw-ring-offset-width: 0px; --tw-ring-offset-color: #fff; --tw-ring-color: rgba(59,130,246,.5); --tw-ring-offset-shadow: 0 0 #0000; --tw-ring-shadow: 0 0 #0000; --tw-shadow: 0 0 #0000; --tw-shadow-colored: 0 0 #0000; --tw-blur: ; --tw-brightness: ; --tw-contrast: ; --tw-grayscale: ; --tw-hue-rotate: ; --tw-invert: ; --tw-saturate: ; --tw-sepia: ; --tw-drop-shadow: ; --tw-backdrop-blur: ; --tw-backdrop-brightness: ; --tw-backdrop-contrast: ; --tw-backdrop-grayscale: ; --tw-backdrop-hue-rotate: ; --tw-backdrop-invert: ; --tw-backdrop-opacity: ; --tw-backdrop-saturate: ; --tw-backdrop-sepia: ; --tw-contain-size: ; --tw-contain-layout: ; --tw-contain-paint: ; --tw-contain-style: ; color: oklch(0.304 0.04 213.681); font-family: __fkGroteskNeue_598ab8, __fkGroteskNeue_Fallback_598ab8, ui-sans-serif, system-ui, -apple-system, BlinkMacSystemFont, &amp;quot;Segoe UI&amp;quot;, Roboto, &amp;quot;Helvetica Neue&amp;quot;, Arial, &amp;quot;Noto Sans&amp;quot;, sans-serif, &amp;quot;Apple Color Emoji&amp;quot;, &amp;quot;Segoe UI Emoji&amp;quot;, &amp;quot;Segoe UI Symbol&amp;quot;, &amp;quot;Noto Color Emoji&amp;quot;; text-align: left; background-color: oklch(0.99 0.004 106.471);&quot;&gt;&lt;span style=&quot;box-sizing: border-box; border: 0px solid rgb(229, 231, 235); scrollbar-color: auto; scrollbar-width: auto; --tw-border-spacing-x: 0; --tw-border-spacing-y: 0; --tw-translate-x: 0; --tw-translate-y: 0; --tw-rotate: 0; --tw-skew-x: 0; --tw-skew-y: 0; --tw-scale-x: 1; --tw-scale-y: 1; --tw-pan-x: ; --tw-pan-y: ; --tw-pinch-zoom: ; --tw-scroll-snap-strictness: proximity; --tw-gradient-from-position: ; --tw-gradient-via-position: ; --tw-gradient-to-position: ; --tw-ordinal: ; --tw-slashed-zero: ; --tw-numeric-figure: ; --tw-numeric-spacing: ; --tw-numeric-fraction: ; --tw-ring-inset: ; --tw-ring-offset-width: 0px; --tw-ring-offset-color: #fff; --tw-ring-color: rgba(59,130,246,.5); --tw-ring-offset-shadow: 0 0 #0000; --tw-ring-shadow: 0 0 #0000; --tw-shadow: 0 0 #0000; --tw-shadow-colored: 0 0 #0000; --tw-blur: ; --tw-brightness: ; --tw-contrast: ; --tw-grayscale: ; --tw-hue-rotate: ; --tw-invert: ; --tw-saturate: ; --tw-sepia: ; --tw-drop-shadow: ; --tw-backdrop-blur: ; --tw-backdrop-brightness: ; --tw-backdrop-contrast: ; --tw-backdrop-grayscale: ; --tw-backdrop-hue-rotate: ; --tw-backdrop-invert: ; --tw-backdrop-opacity: ; --tw-backdrop-saturate: ; --tw-backdrop-sepia: ; --tw-contain-size: ; --tw-contain-layout: ; --tw-contain-paint: ; --tw-contain-style: ; color: var(--tw-prose-bold);&quot;&gt;&lt;font style=&quot;font-size: 12px;&quot;&gt;Web Scraping&lt;/font&gt;&lt;/span&gt;&lt;/span&gt;" style="text;html=1;align=center;verticalAlign=middle;whiteSpace=wrap;rounded=0;fontStyle=1;rotation=0;" vertex="1" parent="Km2wr5Chm2uo7bWbvkf6-115">
          <mxGeometry x="114" y="37" width="100" height="30" as="geometry" />
        </mxCell>
        <mxCell id="Km2wr5Chm2uo7bWbvkf6-61" value="" style="verticalLabelPosition=bottom;html=1;verticalAlign=top;align=center;strokeColor=none;fillColor=#00BEF2;shape=mxgraph.azure.automation;pointerEvents=1;" vertex="1" parent="Km2wr5Chm2uo7bWbvkf6-115">
          <mxGeometry x="312" y="131.5" width="20" height="15" as="geometry" />
        </mxCell>
        <mxCell id="Km2wr5Chm2uo7bWbvkf6-73" value="&lt;span style=&quot;box-sizing: border-box; border: 0px solid rgb(229, 231, 235); scrollbar-color: auto; scrollbar-width: auto; --tw-border-spacing-x: 0; --tw-border-spacing-y: 0; --tw-translate-x: 0; --tw-translate-y: 0; --tw-rotate: 0; --tw-skew-x: 0; --tw-skew-y: 0; --tw-scale-x: 1; --tw-scale-y: 1; --tw-pan-x: ; --tw-pan-y: ; --tw-pinch-zoom: ; --tw-scroll-snap-strictness: proximity; --tw-gradient-from-position: ; --tw-gradient-via-position: ; --tw-gradient-to-position: ; --tw-ordinal: ; --tw-slashed-zero: ; --tw-numeric-figure: ; --tw-numeric-spacing: ; --tw-numeric-fraction: ; --tw-ring-inset: ; --tw-ring-offset-width: 0px; --tw-ring-offset-color: #fff; --tw-ring-color: rgba(59,130,246,.5); --tw-ring-offset-shadow: 0 0 #0000; --tw-ring-shadow: 0 0 #0000; --tw-shadow: 0 0 #0000; --tw-shadow-colored: 0 0 #0000; --tw-blur: ; --tw-brightness: ; --tw-contrast: ; --tw-grayscale: ; --tw-hue-rotate: ; --tw-invert: ; --tw-saturate: ; --tw-sepia: ; --tw-drop-shadow: ; --tw-backdrop-blur: ; --tw-backdrop-brightness: ; --tw-backdrop-contrast: ; --tw-backdrop-grayscale: ; --tw-backdrop-hue-rotate: ; --tw-backdrop-invert: ; --tw-backdrop-opacity: ; --tw-backdrop-saturate: ; --tw-backdrop-sepia: ; --tw-contain-size: ; --tw-contain-layout: ; --tw-contain-paint: ; --tw-contain-style: ; color: oklch(0.304 0.04 213.681); font-family: __fkGroteskNeue_598ab8, __fkGroteskNeue_Fallback_598ab8, ui-sans-serif, system-ui, -apple-system, BlinkMacSystemFont, &amp;quot;Segoe UI&amp;quot;, Roboto, &amp;quot;Helvetica Neue&amp;quot;, Arial, &amp;quot;Noto Sans&amp;quot;, sans-serif, &amp;quot;Apple Color Emoji&amp;quot;, &amp;quot;Segoe UI Emoji&amp;quot;, &amp;quot;Segoe UI Symbol&amp;quot;, &amp;quot;Noto Color Emoji&amp;quot;; text-align: left; background-color: oklch(0.99 0.004 106.471);&quot;&gt;&lt;span style=&quot;box-sizing: border-box; border: 0px solid rgb(229, 231, 235); scrollbar-color: auto; scrollbar-width: auto; --tw-border-spacing-x: 0; --tw-border-spacing-y: 0; --tw-translate-x: 0; --tw-translate-y: 0; --tw-rotate: 0; --tw-skew-x: 0; --tw-skew-y: 0; --tw-scale-x: 1; --tw-scale-y: 1; --tw-pan-x: ; --tw-pan-y: ; --tw-pinch-zoom: ; --tw-scroll-snap-strictness: proximity; --tw-gradient-from-position: ; --tw-gradient-via-position: ; --tw-gradient-to-position: ; --tw-ordinal: ; --tw-slashed-zero: ; --tw-numeric-figure: ; --tw-numeric-spacing: ; --tw-numeric-fraction: ; --tw-ring-inset: ; --tw-ring-offset-width: 0px; --tw-ring-offset-color: #fff; --tw-ring-color: rgba(59,130,246,.5); --tw-ring-offset-shadow: 0 0 #0000; --tw-ring-shadow: 0 0 #0000; --tw-shadow: 0 0 #0000; --tw-shadow-colored: 0 0 #0000; --tw-blur: ; --tw-brightness: ; --tw-contrast: ; --tw-grayscale: ; --tw-hue-rotate: ; --tw-invert: ; --tw-saturate: ; --tw-sepia: ; --tw-drop-shadow: ; --tw-backdrop-blur: ; --tw-backdrop-brightness: ; --tw-backdrop-contrast: ; --tw-backdrop-grayscale: ; --tw-backdrop-hue-rotate: ; --tw-backdrop-invert: ; --tw-backdrop-opacity: ; --tw-backdrop-saturate: ; --tw-backdrop-sepia: ; --tw-contain-size: ; --tw-contain-layout: ; --tw-contain-paint: ; --tw-contain-style: ; color: var(--tw-prose-bold);&quot;&gt;&lt;font style=&quot;font-size: 12px;&quot;&gt;Data Processing&lt;/font&gt;&lt;/span&gt;&lt;/span&gt;" style="text;html=1;align=center;verticalAlign=middle;whiteSpace=wrap;rounded=0;fontStyle=1;rotation=0;" vertex="1" parent="Km2wr5Chm2uo7bWbvkf6-115">
          <mxGeometry x="224" y="36" width="100" height="30" as="geometry" />
        </mxCell>
        <mxCell id="Km2wr5Chm2uo7bWbvkf6-75" value="" style="strokeWidth=2;html=1;shape=mxgraph.flowchart.database;whiteSpace=wrap;" vertex="1" parent="Km2wr5Chm2uo7bWbvkf6-115">
          <mxGeometry x="347" y="96.5" width="60" height="90" as="geometry" />
        </mxCell>
        <mxCell id="Km2wr5Chm2uo7bWbvkf6-76" value="&lt;span style=&quot;box-sizing: border-box; border: 0px solid rgb(229, 231, 235); scrollbar-color: auto; scrollbar-width: auto; --tw-border-spacing-x: 0; --tw-border-spacing-y: 0; --tw-translate-x: 0; --tw-translate-y: 0; --tw-rotate: 0; --tw-skew-x: 0; --tw-skew-y: 0; --tw-scale-x: 1; --tw-scale-y: 1; --tw-pan-x: ; --tw-pan-y: ; --tw-pinch-zoom: ; --tw-scroll-snap-strictness: proximity; --tw-gradient-from-position: ; --tw-gradient-via-position: ; --tw-gradient-to-position: ; --tw-ordinal: ; --tw-slashed-zero: ; --tw-numeric-figure: ; --tw-numeric-spacing: ; --tw-numeric-fraction: ; --tw-ring-inset: ; --tw-ring-offset-width: 0px; --tw-ring-offset-color: #fff; --tw-ring-color: rgba(59,130,246,.5); --tw-ring-offset-shadow: 0 0 #0000; --tw-ring-shadow: 0 0 #0000; --tw-shadow: 0 0 #0000; --tw-shadow-colored: 0 0 #0000; --tw-blur: ; --tw-brightness: ; --tw-contrast: ; --tw-grayscale: ; --tw-hue-rotate: ; --tw-invert: ; --tw-saturate: ; --tw-sepia: ; --tw-drop-shadow: ; --tw-backdrop-blur: ; --tw-backdrop-brightness: ; --tw-backdrop-contrast: ; --tw-backdrop-grayscale: ; --tw-backdrop-hue-rotate: ; --tw-backdrop-invert: ; --tw-backdrop-opacity: ; --tw-backdrop-saturate: ; --tw-backdrop-sepia: ; --tw-contain-size: ; --tw-contain-layout: ; --tw-contain-paint: ; --tw-contain-style: ; color: oklch(0.304 0.04 213.681); font-family: __fkGroteskNeue_598ab8, __fkGroteskNeue_Fallback_598ab8, ui-sans-serif, system-ui, -apple-system, BlinkMacSystemFont, &amp;quot;Segoe UI&amp;quot;, Roboto, &amp;quot;Helvetica Neue&amp;quot;, Arial, &amp;quot;Noto Sans&amp;quot;, sans-serif, &amp;quot;Apple Color Emoji&amp;quot;, &amp;quot;Segoe UI Emoji&amp;quot;, &amp;quot;Segoe UI Symbol&amp;quot;, &amp;quot;Noto Color Emoji&amp;quot;; text-align: left; background-color: oklch(0.99 0.004 106.471);&quot;&gt;&lt;span style=&quot;box-sizing: border-box; border: 0px solid rgb(229, 231, 235); scrollbar-color: auto; scrollbar-width: auto; --tw-border-spacing-x: 0; --tw-border-spacing-y: 0; --tw-translate-x: 0; --tw-translate-y: 0; --tw-rotate: 0; --tw-skew-x: 0; --tw-skew-y: 0; --tw-scale-x: 1; --tw-scale-y: 1; --tw-pan-x: ; --tw-pan-y: ; --tw-pinch-zoom: ; --tw-scroll-snap-strictness: proximity; --tw-gradient-from-position: ; --tw-gradient-via-position: ; --tw-gradient-to-position: ; --tw-ordinal: ; --tw-slashed-zero: ; --tw-numeric-figure: ; --tw-numeric-spacing: ; --tw-numeric-fraction: ; --tw-ring-inset: ; --tw-ring-offset-width: 0px; --tw-ring-offset-color: #fff; --tw-ring-color: rgba(59,130,246,.5); --tw-ring-offset-shadow: 0 0 #0000; --tw-ring-shadow: 0 0 #0000; --tw-shadow: 0 0 #0000; --tw-shadow-colored: 0 0 #0000; --tw-blur: ; --tw-brightness: ; --tw-contrast: ; --tw-grayscale: ; --tw-hue-rotate: ; --tw-invert: ; --tw-saturate: ; --tw-sepia: ; --tw-drop-shadow: ; --tw-backdrop-blur: ; --tw-backdrop-brightness: ; --tw-backdrop-contrast: ; --tw-backdrop-grayscale: ; --tw-backdrop-hue-rotate: ; --tw-backdrop-invert: ; --tw-backdrop-opacity: ; --tw-backdrop-saturate: ; --tw-backdrop-sepia: ; --tw-contain-size: ; --tw-contain-layout: ; --tw-contain-paint: ; --tw-contain-style: ; color: var(--tw-prose-bold);&quot;&gt;&lt;font style=&quot;font-size: 12px;&quot;&gt;Data Storage&lt;/font&gt;&lt;/span&gt;&lt;/span&gt;" style="text;html=1;align=center;verticalAlign=middle;whiteSpace=wrap;rounded=0;fontStyle=1;rotation=0;" vertex="1" parent="Km2wr5Chm2uo7bWbvkf6-115">
          <mxGeometry x="331" y="38" width="100" height="30" as="geometry" />
        </mxCell>
        <mxCell id="Km2wr5Chm2uo7bWbvkf6-80" value="" style="group" vertex="1" connectable="0" parent="Km2wr5Chm2uo7bWbvkf6-115">
          <mxGeometry x="131" y="83" width="114.91" height="101.88" as="geometry" />
        </mxCell>
        <mxCell id="Km2wr5Chm2uo7bWbvkf6-82" value="" style="rounded=1;whiteSpace=wrap;html=1;rotation=90;shadow=1;fillColor=#dae8fc;strokeColor=#6c8ebf;" vertex="1" parent="Km2wr5Chm2uo7bWbvkf6-80">
          <mxGeometry x="-44.09" y="25.13" width="157" height="76.75" as="geometry" />
        </mxCell>
        <mxCell id="Km2wr5Chm2uo7bWbvkf6-41" value="" style="sketch=0;html=1;aspect=fixed;strokeColor=none;shadow=0;fillColor=#3B8DF1;verticalAlign=top;labelPosition=center;verticalLabelPosition=bottom;shape=mxgraph.gcp2.website" vertex="1" parent="Km2wr5Chm2uo7bWbvkf6-80">
          <mxGeometry y="26.5" width="69.07" height="67" as="geometry" />
        </mxCell>
        <mxCell id="Km2wr5Chm2uo7bWbvkf6-53" value="" style="outlineConnect=0;dashed=0;verticalLabelPosition=bottom;verticalAlign=top;align=center;html=1;shape=mxgraph.aws3.android;fillColor=#FFD44F;gradientColor=none;" vertex="1" parent="Km2wr5Chm2uo7bWbvkf6-80">
          <mxGeometry x="12.319999999999993" width="44.43" height="42" as="geometry" />
        </mxCell>
        <mxCell id="Km2wr5Chm2uo7bWbvkf6-81" value="" style="group" vertex="1" connectable="0" parent="Km2wr5Chm2uo7bWbvkf6-115">
          <mxGeometry x="242" y="111" width="109.5" height="61" as="geometry" />
        </mxCell>
        <mxCell id="Km2wr5Chm2uo7bWbvkf6-83" value="" style="rounded=1;whiteSpace=wrap;html=1;rotation=90;shadow=1;fillColor=#d5e8d4;strokeColor=#82b366;" vertex="1" parent="Km2wr5Chm2uo7bWbvkf6-81">
          <mxGeometry x="-47.5" y="6" width="157" height="60" as="geometry" />
        </mxCell>
        <mxCell id="Km2wr5Chm2uo7bWbvkf6-55" value="" style="html=1;dashed=0;whiteSpace=wrap;shape=mxgraph.dfd.archive" vertex="1" parent="Km2wr5Chm2uo7bWbvkf6-81">
          <mxGeometry y="1" width="60" height="60" as="geometry" />
        </mxCell>
        <mxCell id="Km2wr5Chm2uo7bWbvkf6-54" value="" style="sketch=0;pointerEvents=1;shadow=0;dashed=0;html=1;strokeColor=none;fillColor=#005F4B;labelPosition=center;verticalLabelPosition=bottom;verticalAlign=top;align=center;outlineConnect=0;shape=mxgraph.veeam2.cpu_socket;" vertex="1" parent="Km2wr5Chm2uo7bWbvkf6-81">
          <mxGeometry x="21" width="20" height="40.5" as="geometry" />
        </mxCell>
        <mxCell id="Km2wr5Chm2uo7bWbvkf6-88" value="" style="endArrow=classic;startArrow=classic;html=1;rounded=0;entryX=0.828;entryY=1.027;entryDx=0;entryDy=0;entryPerimeter=0;strokeColor=default;fixDash=1;" edge="1" parent="Km2wr5Chm2uo7bWbvkf6-115">
          <mxGeometry width="50" height="50" relative="1" as="geometry">
            <mxPoint x="84" y="144" as="sourcePoint" />
            <mxPoint x="124.96275000000014" y="144.00099999999998" as="targetPoint" />
          </mxGeometry>
        </mxCell>
        <mxCell id="Km2wr5Chm2uo7bWbvkf6-90" value="" style="endArrow=classic;startArrow=classic;html=1;rounded=0;entryX=0.838;entryY=0.983;entryDx=0;entryDy=0;entryPerimeter=0;strokeColor=default;fixDash=1;exitX=0.841;exitY=0.01;exitDx=0;exitDy=0;exitPerimeter=0;" edge="1" parent="Km2wr5Chm2uo7bWbvkf6-115">
          <mxGeometry width="50" height="50" relative="1" as="geometry">
            <mxPoint x="203.01750000000015" y="146.04200000000014" as="sourcePoint" />
            <mxPoint x="244.01999999999998" y="146.06600000000003" as="targetPoint" />
          </mxGeometry>
        </mxCell>
        <mxCell id="Km2wr5Chm2uo7bWbvkf6-91" value="" style="endArrow=classic;startArrow=classic;html=1;rounded=0;entryX=0.87;entryY=1;entryDx=0;entryDy=0;entryPerimeter=0;strokeColor=default;fixDash=1;exitX=0.857;exitY=0.05;exitDx=0;exitDy=0;exitPerimeter=0;" edge="1" parent="Km2wr5Chm2uo7bWbvkf6-115">
          <mxGeometry width="50" height="50" relative="1" as="geometry">
            <mxPoint x="300" y="148.04899999999998" as="sourcePoint" />
            <mxPoint x="347" y="148.08999999999992" as="targetPoint" />
          </mxGeometry>
        </mxCell>
        <mxCell id="Km2wr5Chm2uo7bWbvkf6-93" value="" style="verticalLabelPosition=bottom;html=1;verticalAlign=top;align=center;strokeColor=none;fillColor=#00BEF2;shape=mxgraph.azure.automation;pointerEvents=1;" vertex="1" parent="Km2wr5Chm2uo7bWbvkf6-115">
          <mxGeometry x="94" y="128.5" width="20" height="15" as="geometry" />
        </mxCell>
        <mxCell id="Km2wr5Chm2uo7bWbvkf6-94" value="" style="verticalLabelPosition=bottom;sketch=0;aspect=fixed;html=1;verticalAlign=top;strokeColor=none;align=center;outlineConnect=0;shape=mxgraph.citrix.reporting;" vertex="1" parent="Km2wr5Chm2uo7bWbvkf6-115">
          <mxGeometry x="613.2" y="114.5" width="32.53" height="36.5" as="geometry" />
        </mxCell>
        <mxCell id="Km2wr5Chm2uo7bWbvkf6-95" value="" style="shadow=0;dashed=0;html=1;strokeColor=none;fillColor=#4495D1;labelPosition=center;verticalLabelPosition=bottom;verticalAlign=top;align=center;outlineConnect=0;shape=mxgraph.veeam.2d.report;" vertex="1" parent="Km2wr5Chm2uo7bWbvkf6-115">
          <mxGeometry x="615.2" y="71" width="26.8" height="30" as="geometry" />
        </mxCell>
        <mxCell id="Km2wr5Chm2uo7bWbvkf6-96" value="" style="sketch=0;outlineConnect=0;fontColor=#232F3E;gradientColor=none;fillColor=#8C4FFF;strokeColor=none;dashed=0;verticalLabelPosition=bottom;verticalAlign=top;align=center;html=1;fontSize=12;fontStyle=0;aspect=fixed;pointerEvents=1;shape=mxgraph.aws4.quicksight_paginated_reports;" vertex="1" parent="Km2wr5Chm2uo7bWbvkf6-115">
          <mxGeometry x="615.2" y="171.92000000000002" width="28.74" height="36.16" as="geometry" />
        </mxCell>
        <mxCell id="Km2wr5Chm2uo7bWbvkf6-101" value="&lt;span style=&quot;box-sizing: border-box; border: 0px solid rgb(229, 231, 235); scrollbar-color: auto; scrollbar-width: auto; --tw-border-spacing-x: 0; --tw-border-spacing-y: 0; --tw-translate-x: 0; --tw-translate-y: 0; --tw-rotate: 0; --tw-skew-x: 0; --tw-skew-y: 0; --tw-scale-x: 1; --tw-scale-y: 1; --tw-pan-x: ; --tw-pan-y: ; --tw-pinch-zoom: ; --tw-scroll-snap-strictness: proximity; --tw-gradient-from-position: ; --tw-gradient-via-position: ; --tw-gradient-to-position: ; --tw-ordinal: ; --tw-slashed-zero: ; --tw-numeric-figure: ; --tw-numeric-spacing: ; --tw-numeric-fraction: ; --tw-ring-inset: ; --tw-ring-offset-width: 0px; --tw-ring-offset-color: #fff; --tw-ring-color: rgba(59,130,246,.5); --tw-ring-offset-shadow: 0 0 #0000; --tw-ring-shadow: 0 0 #0000; --tw-shadow: 0 0 #0000; --tw-shadow-colored: 0 0 #0000; --tw-blur: ; --tw-brightness: ; --tw-contrast: ; --tw-grayscale: ; --tw-hue-rotate: ; --tw-invert: ; --tw-saturate: ; --tw-sepia: ; --tw-drop-shadow: ; --tw-backdrop-blur: ; --tw-backdrop-brightness: ; --tw-backdrop-contrast: ; --tw-backdrop-grayscale: ; --tw-backdrop-hue-rotate: ; --tw-backdrop-invert: ; --tw-backdrop-opacity: ; --tw-backdrop-saturate: ; --tw-backdrop-sepia: ; --tw-contain-size: ; --tw-contain-layout: ; --tw-contain-paint: ; --tw-contain-style: ; color: oklch(0.304 0.04 213.681); font-family: __fkGroteskNeue_598ab8, __fkGroteskNeue_Fallback_598ab8, ui-sans-serif, system-ui, -apple-system, BlinkMacSystemFont, &amp;quot;Segoe UI&amp;quot;, Roboto, &amp;quot;Helvetica Neue&amp;quot;, Arial, &amp;quot;Noto Sans&amp;quot;, sans-serif, &amp;quot;Apple Color Emoji&amp;quot;, &amp;quot;Segoe UI Emoji&amp;quot;, &amp;quot;Segoe UI Symbol&amp;quot;, &amp;quot;Noto Color Emoji&amp;quot;; text-align: left; background-color: oklch(0.99 0.004 106.471);&quot;&gt;&lt;span style=&quot;box-sizing: border-box; border: 0px solid rgb(229, 231, 235); scrollbar-color: auto; scrollbar-width: auto; --tw-border-spacing-x: 0; --tw-border-spacing-y: 0; --tw-translate-x: 0; --tw-translate-y: 0; --tw-rotate: 0; --tw-skew-x: 0; --tw-skew-y: 0; --tw-scale-x: 1; --tw-scale-y: 1; --tw-pan-x: ; --tw-pan-y: ; --tw-pinch-zoom: ; --tw-scroll-snap-strictness: proximity; --tw-gradient-from-position: ; --tw-gradient-via-position: ; --tw-gradient-to-position: ; --tw-ordinal: ; --tw-slashed-zero: ; --tw-numeric-figure: ; --tw-numeric-spacing: ; --tw-numeric-fraction: ; --tw-ring-inset: ; --tw-ring-offset-width: 0px; --tw-ring-offset-color: #fff; --tw-ring-color: rgba(59,130,246,.5); --tw-ring-offset-shadow: 0 0 #0000; --tw-ring-shadow: 0 0 #0000; --tw-shadow: 0 0 #0000; --tw-shadow-colored: 0 0 #0000; --tw-blur: ; --tw-brightness: ; --tw-contrast: ; --tw-grayscale: ; --tw-hue-rotate: ; --tw-invert: ; --tw-saturate: ; --tw-sepia: ; --tw-drop-shadow: ; --tw-backdrop-blur: ; --tw-backdrop-brightness: ; --tw-backdrop-contrast: ; --tw-backdrop-grayscale: ; --tw-backdrop-hue-rotate: ; --tw-backdrop-invert: ; --tw-backdrop-opacity: ; --tw-backdrop-saturate: ; --tw-backdrop-sepia: ; --tw-contain-size: ; --tw-contain-layout: ; --tw-contain-paint: ; --tw-contain-style: ; color: var(--tw-prose-bold);&quot;&gt;&lt;font style=&quot;font-size: 12px;&quot;&gt;Reporting&lt;/font&gt;&lt;/span&gt;&lt;/span&gt;" style="text;html=1;align=center;verticalAlign=middle;whiteSpace=wrap;rounded=0;fontStyle=1;rotation=0;" vertex="1" parent="Km2wr5Chm2uo7bWbvkf6-115">
          <mxGeometry x="575.5" y="38" width="100" height="30" as="geometry" />
        </mxCell>
        <mxCell id="Km2wr5Chm2uo7bWbvkf6-102" value="" style="sketch=0;outlineConnect=0;fontColor=#232F3E;gradientColor=none;fillColor=#01A88D;strokeColor=none;dashed=0;verticalLabelPosition=bottom;verticalAlign=top;align=center;html=1;fontSize=12;fontStyle=0;aspect=fixed;pointerEvents=1;shape=mxgraph.aws4.sagemaker_model;" vertex="1" parent="Km2wr5Chm2uo7bWbvkf6-115">
          <mxGeometry x="470.35" y="121" width="42.5" height="42.5" as="geometry" />
        </mxCell>
        <mxCell id="Km2wr5Chm2uo7bWbvkf6-103" value="&lt;b&gt;LLMs&lt;/b&gt;&lt;br&gt;OpenAI API, Mistral 7B, Llama2" style="text;html=1;align=center;verticalAlign=middle;whiteSpace=wrap;rounded=0;" vertex="1" parent="Km2wr5Chm2uo7bWbvkf6-115">
          <mxGeometry x="435.6" y="30" width="114.5" height="30" as="geometry" />
        </mxCell>
        <mxCell id="Km2wr5Chm2uo7bWbvkf6-105" value="" style="endArrow=classic;html=1;rounded=0;exitX=1;exitY=0.5;exitDx=0;exitDy=0;exitPerimeter=0;" edge="1" parent="Km2wr5Chm2uo7bWbvkf6-115">
          <mxGeometry width="50" height="50" relative="1" as="geometry">
            <mxPoint x="407" y="147.5" as="sourcePoint" />
            <mxPoint x="467" y="148" as="targetPoint" />
          </mxGeometry>
        </mxCell>
        <mxCell id="Km2wr5Chm2uo7bWbvkf6-107" style="edgeStyle=orthogonalEdgeStyle;rounded=0;orthogonalLoop=1;jettySize=auto;html=1;exitX=1;exitY=0.5;exitDx=0;exitDy=0;" edge="1" parent="Km2wr5Chm2uo7bWbvkf6-115" source="Km2wr5Chm2uo7bWbvkf6-106" target="Km2wr5Chm2uo7bWbvkf6-106">
          <mxGeometry relative="1" as="geometry" />
        </mxCell>
        <mxCell id="Km2wr5Chm2uo7bWbvkf6-108" value="" style="endArrow=classic;html=1;rounded=0;exitX=0.5;exitY=0;exitDx=0;exitDy=0;" edge="1" parent="Km2wr5Chm2uo7bWbvkf6-115" source="Km2wr5Chm2uo7bWbvkf6-106">
          <mxGeometry width="50" height="50" relative="1" as="geometry">
            <mxPoint x="457" y="141" as="sourcePoint" />
            <mxPoint x="597" y="91" as="targetPoint" />
          </mxGeometry>
        </mxCell>
        <mxCell id="Km2wr5Chm2uo7bWbvkf6-109" value="" style="endArrow=classic;html=1;rounded=0;exitX=0.5;exitY=0;exitDx=0;exitDy=0;entryX=0.5;entryY=1;entryDx=0;entryDy=0;" edge="1" parent="Km2wr5Chm2uo7bWbvkf6-115" source="Km2wr5Chm2uo7bWbvkf6-106" target="Km2wr5Chm2uo7bWbvkf6-97">
          <mxGeometry width="50" height="50" relative="1" as="geometry">
            <mxPoint x="457" y="141" as="sourcePoint" />
            <mxPoint x="597" y="154" as="targetPoint" />
          </mxGeometry>
        </mxCell>
        <mxCell id="Km2wr5Chm2uo7bWbvkf6-110" value="" style="endArrow=classic;html=1;rounded=0;exitX=0.5;exitY=0;exitDx=0;exitDy=0;entryX=0.924;entryY=1.027;entryDx=0;entryDy=0;entryPerimeter=0;" edge="1" parent="Km2wr5Chm2uo7bWbvkf6-115" source="Km2wr5Chm2uo7bWbvkf6-106" target="Km2wr5Chm2uo7bWbvkf6-97">
          <mxGeometry width="50" height="50" relative="1" as="geometry">
            <mxPoint x="457" y="141" as="sourcePoint" />
            <mxPoint x="507" y="91" as="targetPoint" />
          </mxGeometry>
        </mxCell>
        <mxCell id="Km2wr5Chm2uo7bWbvkf6-112" value="" style="verticalLabelPosition=bottom;html=1;verticalAlign=top;align=center;strokeColor=none;fillColor=#00BEF2;shape=mxgraph.azure.automation;pointerEvents=1;" vertex="1" parent="Km2wr5Chm2uo7bWbvkf6-115">
          <mxGeometry x="213" y="129.5" width="20" height="15" as="geometry" />
        </mxCell>
        <mxCell id="Km2wr5Chm2uo7bWbvkf6-114" value="&lt;font style=&quot;font-size: 18px;&quot;&gt;Architecture Diagram&lt;/font&gt;" style="text;html=1;align=center;verticalAlign=middle;whiteSpace=wrap;rounded=0;" vertex="1" parent="Km2wr5Chm2uo7bWbvkf6-115">
          <mxGeometry x="245.5" y="251" width="175.5" height="30" as="geometry" />
        </mxCell>
      </root>
    </mxGraphModel>
  </diagram>
</mxfile>
